<svg width="512" height="512" viewBox="0 0 512 512" fill="none" xmlns="http://www.w3.org/2000/svg">
<g clip-path="url(#clip0_1_2)">
<path d="M256 200.348C225.264 200.348 200.348 225.265 200.348 256C200.348 286.735 225.265 311.652 256 311.652C286.735 311.652 311.652 286.735 311.652 256C311.652 225.265 286.736 200.348 256 200.348ZM272.696 256C263.488 256 256 248.508 256 239.304C256 230.1 263.487 222.608 272.696 222.608C281.904 222.608 289.392 230.1 289.392 239.304C289.391 248.508 281.904 256 272.696 256Z" fill="#1E90FF"/>
<path d="M418.265 117.344L440.442 95.165C446.971 98.284 454.194 100.174 461.913 100.174C489.575 100.174 512 77.75 512 50.087C512 22.424 489.576 0 461.913 0C434.25 0 411.826 22.424 411.826 50.087C411.826 57.805 413.716 65.027 416.835 71.558L389.092 99.3C350.286 78.679 304.711 66.783 256 66.783C207.289 66.783 161.714 78.679 122.909 99.3L95.165 71.558C98.284 65.028 100.174 57.805 100.174 50.087C100.174 22.424 77.749 0 50.087 0C22.425 0 0 22.424 0 50.087C0 77.75 22.424 100.174 50.087 100.174C57.805 100.174 65.027 98.284 71.558 95.165L93.735 117.342C36.543 158.204 0 220.156 0 289.391C0 412.135 114.843 512 256 512C397.157 512 512 412.135 512 289.391C512 220.156 475.457 158.204 418.265 117.344ZM322.783 445.217H200.348C133.565 411.825 133.565 395.223 133.565 386C133.565 376.777 155.482 411.825 200.348 411.825H322.783C367.349 411.825 389.092 376.777 389.092 386C389.091 395.223 389.092 411.825 322.783 445.217ZM256 378.435C188.49 378.435 133.565 323.501 133.565 256C133.565 188.499 188.489 133.565 256 133.565C323.511 133.565 378.435 188.499 378.435 256C378.435 323.501 323.511 378.435 256 378.435Z" fill="#1E90FF"/>
</g>
<defs>
<clipPath id="clip0_1_2">
<rect width="512" height="512" fill="white"/>
</clipPath>
</defs>
</svg>
