<svg width="300" height="64" viewBox="0 0 300 64" fill="none" xmlns="http://www.w3.org/2000/svg">
<g clip-path="url(#clip0_101_66)">
<g clip-path="url(#clip1_101_66)">
<path d="M46.2443 31.1972L46.2445 31.1971C46.6874 30.6383 47.4998 30.5446 48.0587 30.9881L48.0588 30.9882C48.6177 31.4315 48.7113 32.2438 48.2678 32.8025L48.2678 32.8026L30.7232 54.9181L30.08 55.7289H31.1149H41.4934H41.7349L41.8851 55.5396L60.3131 32.3107L60.5596 32L60.3131 31.6892L41.8852 8.46036L41.7351 8.27111H41.4935H31.115H30.0801L30.7233 9.08186L41.084 22.1416C41.5275 22.7006 41.4337 23.5129 40.8751 23.956L40.8749 23.9561C40.3165 24.3993 39.504 24.3058 39.0606 23.747C39.0606 23.747 39.0606 23.747 39.0606 23.747L26.3953 7.78236L26.3953 7.7823C26.0874 7.39429 26.0286 6.86419 26.2442 6.41784C26.4598 5.97162 26.9117 5.68811 27.4071 5.68811H42.3592C42.7534 5.68811 43.126 5.86814 43.3711 6.17701L63.2203 31.1974L63.612 30.8866L63.2203 31.1974C63.5933 31.6675 63.5933 32.3326 63.2203 32.8027L63.612 33.1135L63.2203 32.8027L43.3708 57.8229C43.1257 58.1318 42.753 58.3119 42.359 58.3119H27.4069C26.9114 58.3119 26.4595 58.0284 26.244 57.5821C26.0284 57.1358 26.0872 56.6057 26.3951 56.2176L26.0034 55.9069L26.3951 56.2176L46.2443 31.1972Z" fill="#1E90FF" stroke="black"/>
<path d="M16.7436 6.97961L36.5931 32L16.7436 57.0204H1.7915L21.6409 32L1.7915 6.97961H16.7436Z" fill="#4FD1C5"/>
<path d="M19.7458 32.3107L19.9924 32L19.7458 31.6892L0.779697 7.78236L0.779648 7.7823C0.471726 7.39429 0.41299 6.86419 0.628594 6.41784C0.844151 5.97158 1.29585 5.68811 1.79149 5.68811H16.7436C17.1377 5.68811 17.5104 5.86814 17.7554 6.17701L37.6049 31.1974L37.9966 30.8866L37.6049 31.1974C37.9779 31.6675 37.9779 32.3326 37.6049 32.8027L37.9966 33.1135L37.6049 32.8027L17.7554 57.8229C17.5103 58.1318 17.1378 58.3119 16.7436 58.3119H1.79149C1.29595 58.3119 0.844142 58.0284 0.628594 57.5821C0.41302 57.1358 0.4718 56.6057 0.779692 56.2176L0.38858 55.9073L0.779697 56.2176L19.7458 32.3107ZM5.10791 54.9181L4.46472 55.7289H5.49962H15.8781H16.1197L16.2698 55.5396L34.6979 32.3107L34.9445 32L34.6979 31.6892L16.2698 8.46036L16.1197 8.27111H15.8781H5.49962H4.46471L5.10791 9.08186L22.6528 31.1972L23.0445 30.8865L22.6528 31.1972C23.0258 31.6674 23.0258 32.3325 22.6528 32.8026L23.0445 33.1134L22.6528 32.8026L5.10791 54.9181Z" fill="#1E90FF" stroke="black"/>
</g>
<path d="M84.144 44.616C81.2987 44.616 78.9667 44 77.148 42.768C75.3293 41.536 74.2293 39.776 73.848 37.488L78.952 36.168C79.1573 37.1947 79.4947 38.0013 79.964 38.588C80.4627 39.1747 81.064 39.6 81.768 39.864C82.5013 40.0987 83.2933 40.216 84.144 40.216C85.4347 40.216 86.388 39.996 87.004 39.556C87.62 39.0867 87.928 38.5147 87.928 37.84C87.928 37.1653 87.6347 36.652 87.048 36.3C86.4613 35.9187 85.5227 35.6107 84.232 35.376L83 35.156C81.4747 34.8627 80.0813 34.4667 78.82 33.968C77.5587 33.44 76.5467 32.7213 75.784 31.812C75.0213 30.9027 74.64 29.7293 74.64 28.292C74.64 26.1213 75.432 24.464 77.016 23.32C78.6 22.1467 80.6827 21.56 83.264 21.56C85.6987 21.56 87.7227 22.1027 89.336 23.188C90.9493 24.2733 92.0053 25.696 92.504 27.456L87.356 29.04C87.1213 27.9253 86.6373 27.1333 85.904 26.664C85.2 26.1947 84.32 25.96 83.264 25.96C82.208 25.96 81.4013 26.1507 80.844 26.532C80.2867 26.884 80.008 27.3827 80.008 28.028C80.008 28.732 80.3013 29.26 80.888 29.612C81.4747 29.9347 82.2667 30.184 83.264 30.36L84.496 30.58C86.1387 30.8733 87.62 31.2693 88.94 31.768C90.2893 32.2373 91.3453 32.9267 92.108 33.836C92.9 34.716 93.296 35.9187 93.296 37.444C93.296 39.732 92.46 41.5067 90.788 42.768C89.1453 44 86.9307 44.616 84.144 44.616ZM98.1542 44V22.176H103.61V25.036H104.402C104.754 24.2733 105.414 23.5547 106.382 22.88C107.35 22.176 108.817 21.824 110.782 21.824C112.484 21.824 113.965 22.22 115.226 23.012C116.517 23.7747 117.514 24.8453 118.218 26.224C118.922 27.5733 119.274 29.1573 119.274 30.976V44H113.73V31.416C113.73 29.7733 113.32 28.5413 112.498 27.72C111.706 26.8987 110.562 26.488 109.066 26.488C107.365 26.488 106.045 27.06 105.106 28.204C104.168 29.3187 103.698 30.888 103.698 32.912V44H98.1542ZM132.044 44.616C130.489 44.616 129.096 44.352 127.864 43.824C126.632 43.2667 125.649 42.4747 124.916 41.448C124.212 40.392 123.86 39.116 123.86 37.62C123.86 36.124 124.212 34.8773 124.916 33.88C125.649 32.8533 126.646 32.0907 127.908 31.592C129.198 31.064 130.665 30.8 132.308 30.8H138.292V29.568C138.292 28.5413 137.969 27.7053 137.324 27.06C136.678 26.3853 135.652 26.048 134.244 26.048C132.865 26.048 131.838 26.3707 131.164 27.016C130.489 27.632 130.049 28.4387 129.844 29.436L124.74 27.72C125.092 26.6053 125.649 25.5933 126.412 24.684C127.204 23.7453 128.245 22.9973 129.536 22.44C130.856 21.8533 132.454 21.56 134.332 21.56C137.206 21.56 139.48 22.2787 141.152 23.716C142.824 25.1533 143.66 27.236 143.66 29.964V38.104C143.66 38.984 144.07 39.424 144.892 39.424H146.652V44H142.956C141.87 44 140.976 43.736 140.272 43.208C139.568 42.68 139.216 41.976 139.216 41.096V41.052H138.38C138.262 41.404 137.998 41.8733 137.588 42.46C137.177 43.0173 136.532 43.516 135.652 43.956C134.772 44.396 133.569 44.616 132.044 44.616ZM133.012 40.128C134.566 40.128 135.828 39.7027 136.796 38.852C137.793 37.972 138.292 36.8133 138.292 35.376V34.936H132.704C131.677 34.936 130.87 35.156 130.284 35.596C129.697 36.036 129.404 36.652 129.404 37.444C129.404 38.236 129.712 38.8813 130.328 39.38C130.944 39.8787 131.838 40.128 133.012 40.128ZM157.475 44C156.038 44 154.864 43.56 153.955 42.68C153.075 41.7707 152.635 40.568 152.635 39.072V26.752H147.179V22.176H152.635V15.4H158.179V22.176H164.163V26.752H158.179V38.104C158.179 38.984 158.59 39.424 159.411 39.424H163.635V44H157.475ZM178.66 44.616C176.548 44.616 174.627 44.176 172.896 43.296C171.195 42.416 169.845 41.14 168.848 39.468C167.851 37.796 167.352 35.772 167.352 33.396V32.78C167.352 30.404 167.851 28.38 168.848 26.708C169.845 25.036 171.195 23.76 172.896 22.88C174.627 22 176.548 21.56 178.66 21.56C180.743 21.56 182.532 21.9267 184.028 22.66C185.524 23.3933 186.727 24.4053 187.636 25.696C188.575 26.9573 189.191 28.3947 189.484 30.008L184.116 31.152C183.999 30.272 183.735 29.48 183.324 28.776C182.913 28.072 182.327 27.5147 181.564 27.104C180.831 26.6933 179.907 26.488 178.792 26.488C177.677 26.488 176.665 26.7373 175.756 27.236C174.876 27.7053 174.172 28.424 173.644 29.392C173.145 30.3307 172.896 31.4893 172.896 32.868V33.308C172.896 34.6867 173.145 35.86 173.644 36.828C174.172 37.7667 174.876 38.4853 175.756 38.984C176.665 39.4533 177.677 39.688 178.792 39.688C180.464 39.688 181.725 39.2627 182.576 38.412C183.456 37.532 184.013 36.388 184.248 34.98L189.616 36.256C189.235 37.8107 188.575 39.2333 187.636 40.524C186.727 41.7853 185.524 42.7827 184.028 43.516C182.532 44.2493 180.743 44.616 178.66 44.616ZM194.189 44V13.2H199.733V24.86H200.525C200.76 24.3907 201.127 23.9213 201.625 23.452C202.124 22.9827 202.784 22.6013 203.605 22.308C204.456 21.9853 205.527 21.824 206.817 21.824C208.519 21.824 210 22.22 211.261 23.012C212.552 23.7747 213.549 24.8453 214.253 26.224C214.957 27.5733 215.309 29.1573 215.309 30.976V44H209.765V31.416C209.765 29.7733 209.355 28.5413 208.533 27.72C207.741 26.8987 206.597 26.488 205.101 26.488C203.4 26.488 202.08 27.06 201.141 28.204C200.203 29.3187 199.733 30.888 199.733 32.912V44H194.189ZM224.779 44.616C223.605 44.616 222.608 44.2347 221.787 43.472C220.995 42.68 220.599 41.668 220.599 40.436C220.599 39.204 220.995 38.2067 221.787 37.444C222.608 36.652 223.605 36.256 224.779 36.256C225.981 36.256 226.979 36.652 227.771 37.444C228.563 38.2067 228.959 39.204 228.959 40.436C228.959 41.668 228.563 42.68 227.771 43.472C226.979 44.2347 225.981 44.616 224.779 44.616ZM235.137 44V26.752H229.593V22.176H235.137V18.128C235.137 16.632 235.577 15.444 236.457 14.564C237.367 13.6547 238.54 13.2 239.977 13.2H245.697V17.776H241.913C241.092 17.776 240.681 18.216 240.681 19.096V22.176H246.401V26.752H240.681V44H235.137ZM253.069 52.8V47.96H264.949C265.771 47.96 266.181 47.52 266.181 46.64V41.14H265.389C265.155 41.6387 264.788 42.1373 264.289 42.636C263.791 43.1347 263.116 43.5453 262.265 43.868C261.415 44.1907 260.329 44.352 259.009 44.352C257.308 44.352 255.812 43.9707 254.521 43.208C253.26 42.416 252.277 41.3307 251.573 39.952C250.869 38.5733 250.517 36.9893 250.517 35.2V22.176H256.061V34.76C256.061 36.4027 256.457 37.6347 257.249 38.456C258.071 39.2773 259.229 39.688 260.725 39.688C262.427 39.688 263.747 39.1307 264.685 38.016C265.624 36.872 266.093 35.288 266.093 33.264V22.176H271.637V47.872C271.637 49.368 271.197 50.556 270.317 51.436C269.437 52.3453 268.264 52.8 266.797 52.8H253.069ZM277.807 44V22.176H283.351V44H277.807ZM280.579 19.624C279.581 19.624 278.731 19.3013 278.027 18.656C277.352 18.0107 277.015 17.16 277.015 16.104C277.015 15.048 277.352 14.1973 278.027 13.552C278.731 12.9067 279.581 12.584 280.579 12.584C281.605 12.584 282.456 12.9067 283.131 13.552C283.805 14.1973 284.143 15.048 284.143 16.104C284.143 17.16 283.805 18.0107 283.131 18.656C282.456 19.3013 281.605 19.624 280.579 19.624Z" fill="#1E90FF"/>
<path d="M77.148 42.768L77.7088 41.9401L77.7088 41.9401L77.148 42.768ZM73.848 37.488L73.5976 36.5199L72.7111 36.7491L72.8616 37.6524L73.848 37.488ZM78.952 36.168L79.9326 35.9719L79.7252 34.9351L78.7016 35.1999L78.952 36.168ZM79.964 38.588L79.1831 39.2127L79.1924 39.2243L79.2021 39.2356L79.964 38.588ZM81.768 39.864L81.4169 40.8003L81.4399 40.8089L81.4632 40.8164L81.768 39.864ZM87.004 39.556L87.5852 40.3697L87.5978 40.3608L87.61 40.3514L87.004 39.556ZM87.048 36.3L86.503 37.1384L86.5181 37.1482L86.5335 37.1575L87.048 36.3ZM84.232 35.376L84.4109 34.3921L84.4078 34.3916L84.232 35.376ZM83 35.156L82.8111 36.1381L82.8242 36.1404L83 35.156ZM78.82 33.968L78.4339 34.8904L78.4431 34.8943L78.4523 34.898L78.82 33.968ZM75.784 31.812L75.0178 32.4546L75.0178 32.4546L75.784 31.812ZM77.016 23.32L77.6015 24.1307L77.6112 24.1236L77.016 23.32ZM89.336 23.188L88.7778 24.0177L88.7778 24.0177L89.336 23.188ZM92.504 27.456L92.7981 28.4118L93.7327 28.1242L93.4661 27.1834L92.504 27.456ZM87.356 29.04L86.3775 29.246L86.6031 30.3179L87.6501 29.9958L87.356 29.04ZM85.904 26.664L85.3493 27.496L85.3571 27.5012L85.3649 27.5063L85.904 26.664ZM80.844 26.532L81.378 27.3775L81.3935 27.3677L81.4087 27.3573L80.844 26.532ZM80.888 29.612L80.3735 30.4695L80.3896 30.4792L80.4061 30.4882L80.888 29.612ZM83.264 30.36L83.4398 29.3756L83.4378 29.3752L83.264 30.36ZM88.94 31.768L88.5866 32.7035L88.599 32.7081L88.6115 32.7125L88.94 31.768ZM92.108 33.836L91.3418 34.4786L91.353 34.492L91.3647 34.505L92.108 33.836ZM90.788 42.768L91.388 43.568L91.3902 43.5663L90.788 42.768ZM84.144 43.616C81.4401 43.616 79.3194 43.0311 77.7088 41.9401L76.5872 43.5959C78.614 44.9689 81.1573 45.616 84.144 45.616V43.616ZM77.7088 41.9401C76.1307 40.871 75.1735 39.3584 74.8344 37.3236L72.8616 37.6524C73.2851 40.1936 74.5279 42.201 76.5872 43.5959L77.7088 41.9401ZM74.0984 38.4561L79.2024 37.1361L78.7016 35.1999L73.5976 36.5199L74.0984 38.4561ZM77.9714 36.3641C78.1965 37.4893 78.5825 38.4619 79.1831 39.2127L80.7449 37.9633C80.4069 37.5408 80.1182 36.9 79.9326 35.9719L77.9714 36.3641ZM79.2021 39.2356C79.8081 39.9487 80.5497 40.4751 81.4169 40.8003L82.1191 38.9277C81.5783 38.7249 81.1172 38.4007 80.7259 37.9404L79.2021 39.2356ZM81.4632 40.8164C82.3048 41.0857 83.2006 41.216 84.144 41.216V39.216C83.386 39.216 82.6978 39.1116 82.0728 38.9116L81.4632 40.8164ZM84.144 41.216C85.5114 41.216 86.7171 40.9898 87.5852 40.3697L86.4228 38.7423C86.0589 39.0022 85.3579 39.216 84.144 39.216V41.216ZM87.61 40.3514C88.4326 39.7247 88.928 38.8757 88.928 37.84H86.928C86.928 38.1536 86.8074 38.4486 86.398 38.7606L87.61 40.3514ZM88.928 37.84C88.928 36.808 88.4452 35.9721 87.5625 35.4425L86.5335 37.1575C86.8242 37.3319 86.928 37.5226 86.928 37.84H88.928ZM87.593 35.4616C86.8361 34.9696 85.738 34.6334 84.4109 34.3921L84.0531 36.3599C85.3074 36.5879 86.0865 36.8677 86.503 37.1384L87.593 35.4616ZM84.4078 34.3916L83.1758 34.1716L82.8242 36.1404L84.0562 36.3604L84.4078 34.3916ZM83.1888 34.174C81.716 33.8908 80.3835 33.5108 79.1877 33.038L78.4523 34.898C79.7791 35.4225 81.2333 35.8346 82.8112 36.138L83.1888 34.174ZM79.2061 33.0456C78.0695 32.5698 77.1957 31.9391 76.5502 31.1694L75.0178 32.4546C75.8976 33.5036 77.0478 34.3102 78.4339 34.8904L79.2061 33.0456ZM76.5502 31.1694C75.9687 30.4761 75.64 29.5459 75.64 28.292H73.64C73.64 29.9128 74.074 31.3293 75.0178 32.4546L76.5502 31.1694ZM75.64 28.292C75.64 26.4012 76.3096 25.0637 77.6015 24.1307L76.4305 22.5093C74.5544 23.8643 73.64 25.8415 73.64 28.292H75.64ZM77.6112 24.1236C78.9765 23.1123 80.8308 22.56 83.264 22.56V20.56C80.5345 20.56 78.2235 21.1811 76.4208 22.5164L77.6112 24.1236ZM83.264 22.56C85.5501 22.56 87.3667 23.0685 88.7778 24.0177L89.8942 22.3583C88.0786 21.1369 85.8473 20.56 83.264 20.56V22.56ZM88.7778 24.0177C90.2082 24.98 91.112 26.2113 91.5419 27.7286L93.4661 27.1834C92.8987 25.1807 91.6905 23.5667 89.8942 22.3583L88.7778 24.0177ZM92.2099 26.5002L87.0619 28.0842L87.6501 29.9958L92.7981 28.4118L92.2099 26.5002ZM88.3346 28.834C88.0624 27.5413 87.4658 26.4763 86.4431 25.8217L85.3649 27.5063C85.8088 27.7904 86.1803 28.3094 86.3775 29.246L88.3346 28.834ZM86.4587 25.8319C85.5539 25.2287 84.4683 24.96 83.264 24.96V26.96C84.1717 26.96 84.8461 27.1606 85.3493 27.496L86.4587 25.8319ZM83.264 24.96C82.1116 24.96 81.0726 25.1639 80.2793 25.7067L81.4087 27.3573C81.7301 27.1374 82.3044 26.96 83.264 26.96V24.96ZM80.31 25.6865C79.4701 26.2169 79.008 27.0307 79.008 28.028H81.008C81.008 27.7346 81.1032 27.5511 81.378 27.3775L80.31 25.6865ZM79.008 28.028C79.008 29.0708 79.4751 29.9304 80.3735 30.4695L81.4025 28.7545C81.1276 28.5896 81.008 28.3932 81.008 28.028H79.008ZM80.4061 30.4882C81.1247 30.8835 82.0344 31.1585 83.0902 31.3448L83.4378 29.3752C82.4989 29.2095 81.8246 28.9859 81.3699 28.7358L80.4061 30.4882ZM83.0882 31.3444L84.3202 31.5644L84.6718 29.5956L83.4398 29.3756L83.0882 31.3444ZM84.3202 31.5644C85.9129 31.8488 87.3335 32.2301 88.5866 32.7035L89.2934 30.8325C87.9065 30.3086 86.3644 29.8978 84.6718 29.5956L84.3202 31.5644ZM88.6115 32.7125C89.8252 33.1347 90.7167 33.7333 91.3418 34.4786L92.8742 33.1934C91.9739 32.12 90.7535 31.34 89.2685 30.8235L88.6115 32.7125ZM91.3647 34.505C91.9482 35.1533 92.296 36.0924 92.296 37.444H94.296C94.296 35.7449 93.8518 34.2787 92.8513 33.167L91.3647 34.505ZM92.296 37.444C92.296 39.4517 91.5817 40.9166 90.1858 41.9697L91.3902 43.5663C93.3383 42.0967 94.296 40.0123 94.296 37.444H92.296ZM90.188 41.968C88.7709 43.0309 86.7906 43.616 84.144 43.616V45.616C87.0708 45.616 89.5198 44.9691 91.388 43.568L90.188 41.968ZM98.1542 44H97.1542V45H98.1542V44ZM98.1542 22.176V21.176H97.1542V22.176H98.1542ZM103.61 22.176H104.61V21.176H103.61V22.176ZM103.61 25.036H102.61V26.036H103.61V25.036ZM104.402 25.036V26.036H105.042L105.31 25.4551L104.402 25.036ZM106.382 22.88L106.954 23.7004L106.962 23.6946L106.97 23.6887L106.382 22.88ZM115.226 23.012L114.694 23.8589L114.706 23.8661L114.717 23.8729L115.226 23.012ZM118.218 26.224L117.328 26.6788L117.332 26.6866L118.218 26.224ZM119.274 44V45H120.274V44H119.274ZM113.73 44H112.73V45H113.73V44ZM112.498 27.72L111.778 28.4141L111.785 28.4207L111.791 28.4271L112.498 27.72ZM105.106 28.204L105.871 28.8482L105.879 28.8383L105.106 28.204ZM103.698 44V45H104.698V44H103.698ZM99.1542 44V22.176H97.1542V44H99.1542ZM98.1542 23.176H103.61V21.176H98.1542V23.176ZM102.61 22.176V25.036H104.61V22.176H102.61ZM103.61 26.036H104.402V24.036H103.61V26.036ZM105.31 25.4551C105.564 24.906 106.076 24.3126 106.954 23.7004L105.81 22.0596C104.753 22.7968 103.945 23.6406 103.494 24.6169L105.31 25.4551ZM106.97 23.6887C107.689 23.1661 108.904 22.824 110.782 22.824V20.824C108.729 20.824 107.011 21.1859 105.794 22.0713L106.97 23.6887ZM110.782 22.824C112.323 22.824 113.614 23.1806 114.694 23.8589L115.758 22.1651C114.316 21.2594 112.644 20.824 110.782 20.824V22.824ZM114.717 23.8729C115.839 24.5359 116.707 25.4632 117.328 26.6788L119.109 25.7692C118.322 24.2275 117.194 23.0134 115.735 22.1511L114.717 23.8729ZM117.332 26.6866C117.948 27.8678 118.274 29.2872 118.274 30.976H120.274C120.274 29.0275 119.897 27.2789 119.105 25.7614L117.332 26.6866ZM118.274 30.976V44H120.274V30.976H118.274ZM119.274 43H113.73V45H119.274V43ZM114.73 44V31.416H112.73V44H114.73ZM114.73 31.416C114.73 29.6192 114.28 28.0879 113.205 27.0129L111.791 28.4271C112.359 28.9948 112.73 29.9275 112.73 31.416H114.73ZM113.218 27.0259C112.184 25.9535 110.745 25.488 109.066 25.488V27.488C110.379 27.488 111.228 27.8438 111.778 28.4141L113.218 27.0259ZM109.066 25.488C107.116 25.488 105.491 26.158 104.333 27.5697L105.879 28.8383C106.598 27.962 107.614 27.488 109.066 27.488V25.488ZM104.341 27.5599C103.201 28.914 102.698 30.7433 102.698 32.912H104.698C104.698 31.0327 105.134 29.7233 105.871 28.8481L104.341 27.5599ZM102.698 32.912V44H104.698V32.912H102.698ZM103.698 43H98.1542V45H103.698V43ZM127.864 43.824L127.451 44.7351L127.46 44.7392L127.47 44.7431L127.864 43.824ZM124.916 41.448L124.083 42.0027L124.092 42.0161L124.102 42.0292L124.916 41.448ZM124.916 33.88L124.102 33.2988L124.099 33.3033L124.916 33.88ZM127.908 31.592L128.275 32.522L128.286 32.5175L127.908 31.592ZM138.292 30.8V31.8H139.292V30.8H138.292ZM137.324 27.06L136.601 27.7512L136.609 27.7592L136.616 27.7671L137.324 27.06ZM131.164 27.016L131.838 27.7545L131.846 27.7467L131.855 27.7386L131.164 27.016ZM129.844 29.436L129.525 30.3839L130.595 30.7437L130.823 29.6377L129.844 29.436ZM124.74 27.72L123.786 27.4189L123.49 28.355L124.421 28.6679L124.74 27.72ZM126.412 24.684L125.647 24.0391L125.645 24.0414L126.412 24.684ZM129.536 22.44L129.932 23.3581L129.942 23.3538L129.536 22.44ZM141.152 23.716L140.5 24.4743L140.5 24.4743L141.152 23.716ZM146.652 39.424H147.652V38.424H146.652V39.424ZM146.652 44V45H147.652V44H146.652ZM140.272 43.208L139.672 44.008L139.672 44.008L140.272 43.208ZM139.216 41.052H140.216V40.052H139.216V41.052ZM138.38 41.052V40.052H137.659L137.431 40.7358L138.38 41.052ZM137.588 42.46L138.393 43.0532L138.4 43.0434L138.407 43.0335L137.588 42.46ZM135.652 43.956L136.099 44.8504L135.652 43.956ZM136.796 38.852L137.456 39.6032L137.457 39.6018L136.796 38.852ZM138.292 34.936H139.292V33.936H138.292V34.936ZM130.284 35.596L130.884 36.396L130.884 36.396L130.284 35.596ZM130.328 39.38L129.698 40.1572L129.698 40.1572L130.328 39.38ZM132.044 43.616C130.603 43.616 129.347 43.3717 128.257 42.9049L127.47 44.7431C128.844 45.3323 130.375 45.616 132.044 45.616V43.616ZM128.276 42.9129C127.192 42.4228 126.353 41.7397 125.729 40.8668L124.102 42.0292C124.945 43.2096 126.071 44.1105 127.451 44.7351L128.276 42.9129ZM125.748 40.8933C125.171 40.0292 124.86 38.9546 124.86 37.62H122.86C122.86 39.2774 123.252 40.7548 124.083 42.0027L125.748 40.8933ZM124.86 37.62C124.86 36.2833 125.172 35.2504 125.732 34.4567L124.099 33.3033C123.251 34.5042 122.86 35.9647 122.86 37.62H124.86ZM125.729 34.4612C126.342 33.6032 127.179 32.9553 128.275 32.522L127.54 30.662C126.113 31.226 124.956 32.1035 124.102 33.2988L125.729 34.4612ZM128.286 32.5175C129.437 32.0466 130.772 31.8 132.308 31.8V29.8C130.558 29.8 128.959 30.0814 127.529 30.6665L128.286 32.5175ZM132.308 31.8H138.292V29.8H132.308V31.8ZM139.292 30.8V29.568H137.292V30.8H139.292ZM139.292 29.568C139.292 28.3123 138.888 27.2099 138.031 26.3529L136.616 27.7671C137.05 28.2008 137.292 28.7704 137.292 29.568H139.292ZM138.046 26.3688C137.134 25.4157 135.787 25.048 134.244 25.048V27.048C135.516 27.048 136.222 27.355 136.601 27.7512L138.046 26.3688ZM134.244 25.048C132.729 25.048 131.405 25.4009 130.472 26.2934L131.855 27.7386C132.271 27.3404 133.001 27.048 134.244 27.048V25.048ZM130.489 26.2775C129.641 27.052 129.107 28.0552 128.864 29.2343L130.823 29.6377C130.991 28.8222 131.337 28.212 131.838 27.7545L130.489 26.2775ZM130.162 28.4881L125.058 26.7721L124.421 28.6679L129.525 30.3839L130.162 28.4881ZM125.693 28.0211C126.005 27.0334 126.498 26.1371 127.178 25.3266L125.645 24.0414C124.8 25.0496 124.178 26.1772 123.786 27.4189L125.693 28.0211ZM127.176 25.3289C127.854 24.5246 128.763 23.8629 129.932 23.3581L129.139 21.5219C127.727 22.1317 126.553 22.9661 125.647 24.0391L127.176 25.3289ZM129.942 23.3538C131.102 22.8383 132.554 22.56 134.332 22.56V20.56C132.354 20.56 130.609 20.8684 129.129 21.5262L129.942 23.3538ZM134.332 22.56C137.041 22.56 139.058 23.2352 140.5 24.4743L141.803 22.9577C139.901 21.3221 137.371 20.56 134.332 20.56V22.56ZM140.5 24.4743C141.899 25.6776 142.66 27.4523 142.66 29.964H144.66C144.66 27.0197 143.748 24.629 141.803 22.9577L140.5 24.4743ZM142.66 29.964V38.104H144.66V29.964H142.66ZM142.66 38.104C142.66 38.6816 142.793 39.3011 143.236 39.7763C143.692 40.2645 144.308 40.424 144.892 40.424V38.424C144.773 38.424 144.711 38.4078 144.689 38.3998C144.672 38.3937 144.683 38.395 144.699 38.4117C144.731 38.4469 144.66 38.4064 144.66 38.104H142.66ZM144.892 40.424H146.652V38.424H144.892V40.424ZM145.652 39.424V44H147.652V39.424H145.652ZM146.652 43H142.956V45H146.652V43ZM142.956 43C142.035 43 141.365 42.7784 140.872 42.408L139.672 44.008C140.586 44.6936 141.705 45 142.956 45V43ZM140.872 42.408C140.419 42.0689 140.216 41.6612 140.216 41.096H138.216C138.216 42.2908 138.716 43.2911 139.672 44.008L140.872 42.408ZM140.216 41.096V41.052H138.216V41.096H140.216ZM139.216 40.052H138.38V42.052H139.216V40.052ZM137.431 40.7358C137.361 40.9466 137.165 41.3199 136.768 41.8865L138.407 43.0335C138.831 42.4267 139.164 41.8614 139.328 41.3682L137.431 40.7358ZM136.782 41.8668C136.497 42.2547 135.999 42.6644 135.204 43.0616L136.099 44.8504C137.064 44.3676 137.857 43.78 138.393 43.0532L136.782 41.8668ZM135.204 43.0616C134.519 43.4043 133.491 43.616 132.044 43.616V45.616C133.647 45.616 135.024 45.3877 136.099 44.8504L135.204 43.0616ZM133.012 41.128C134.757 41.128 136.269 40.6458 137.456 39.6032L136.135 38.1008C135.386 38.7595 134.376 39.128 133.012 39.128V41.128ZM137.457 39.6018C138.688 38.5154 139.292 37.0742 139.292 35.376H137.292C137.292 36.5525 136.897 37.4286 136.134 38.1022L137.457 39.6018ZM139.292 35.376V34.936H137.292V35.376H139.292ZM138.292 33.936H132.704V35.936H138.292V33.936ZM132.704 33.936C131.545 33.936 130.5 34.1833 129.684 34.796L130.884 36.396C131.24 36.1287 131.809 35.936 132.704 35.936V33.936ZM129.684 34.796C128.823 35.4417 128.404 36.3665 128.404 37.444H130.404C130.404 36.9375 130.571 36.6303 130.884 36.396L129.684 34.796ZM128.404 37.444C128.404 38.538 128.848 39.4689 129.698 40.1572L130.957 38.6028C130.575 38.2938 130.404 37.934 130.404 37.444H128.404ZM129.698 40.1572C130.56 40.855 131.715 41.128 133.012 41.128V39.128C131.961 39.128 131.327 38.9023 130.957 38.6028L129.698 40.1572ZM153.955 42.68L153.237 43.3754L153.248 43.3872L153.26 43.3986L153.955 42.68ZM152.635 26.752H153.635V25.752H152.635V26.752ZM147.179 26.752H146.179V27.752H147.179V26.752ZM147.179 22.176V21.176H146.179V22.176H147.179ZM152.635 22.176V23.176H153.635V22.176H152.635ZM152.635 15.4V14.4H151.635V15.4H152.635ZM158.179 15.4H159.179V14.4H158.179V15.4ZM158.179 22.176H157.179V23.176H158.179V22.176ZM164.163 22.176H165.163V21.176H164.163V22.176ZM164.163 26.752V27.752H165.163V26.752H164.163ZM158.179 26.752V25.752H157.179V26.752H158.179ZM163.635 39.424H164.635V38.424H163.635V39.424ZM163.635 44V45H164.635V44H163.635ZM157.475 43C156.259 43 155.348 42.636 154.651 41.9614L153.26 43.3986C154.381 44.484 155.816 45 157.475 45V43ZM154.674 41.9846C154.007 41.2952 153.635 40.3591 153.635 39.072H151.635C151.635 40.7769 152.144 42.2461 153.237 43.3754L154.674 41.9846ZM153.635 39.072V26.752H151.635V39.072H153.635ZM152.635 25.752H147.179V27.752H152.635V25.752ZM148.179 26.752V22.176H146.179V26.752H148.179ZM147.179 23.176H152.635V21.176H147.179V23.176ZM153.635 22.176V15.4H151.635V22.176H153.635ZM152.635 16.4H158.179V14.4H152.635V16.4ZM157.179 15.4V22.176H159.179V15.4H157.179ZM158.179 23.176H164.163V21.176H158.179V23.176ZM163.163 22.176V26.752H165.163V22.176H163.163ZM164.163 25.752H158.179V27.752H164.163V25.752ZM157.179 26.752V38.104H159.179V26.752H157.179ZM157.179 38.104C157.179 38.6816 157.313 39.3011 157.756 39.7763C158.212 40.2645 158.828 40.424 159.411 40.424V38.424C159.292 38.424 159.231 38.4078 159.208 38.3998C159.192 38.3937 159.203 38.395 159.218 38.4117C159.251 38.4469 159.179 38.4064 159.179 38.104H157.179ZM159.411 40.424H163.635V38.424H159.411V40.424ZM162.635 39.424V44H164.635V39.424H162.635ZM163.635 43H157.475V45H163.635V43ZM172.896 43.296L172.437 44.1842L172.443 44.1874L172.896 43.296ZM168.848 26.708L169.707 27.2203L169.707 27.2203L168.848 26.708ZM172.896 22.88L172.443 21.9886L172.437 21.9918L172.896 22.88ZM184.028 22.66L183.588 23.5579L183.588 23.5579L184.028 22.66ZM187.636 25.696L186.819 26.272L186.826 26.2826L186.834 26.293L187.636 25.696ZM189.484 30.008L189.693 30.986L190.642 30.7838L190.468 29.8291L189.484 30.008ZM184.116 31.152L183.125 31.2842L183.268 32.3553L184.325 32.13L184.116 31.152ZM181.564 27.104L181.076 27.9765L181.083 27.9805L181.09 27.9845L181.564 27.104ZM175.756 27.236L176.227 28.1184L176.237 28.1128L175.756 27.236ZM173.644 29.392L172.766 28.9131L172.761 28.9228L173.644 29.392ZM173.644 36.828L172.755 37.286L172.764 37.3023L172.773 37.3183L173.644 36.828ZM175.756 38.984L175.263 39.854L175.28 39.8637L175.297 39.8726L175.756 38.984ZM182.576 38.412L183.283 39.1191L183.283 39.1191L182.576 38.412ZM184.248 34.98L184.479 34.0071L183.438 33.7595L183.262 34.8156L184.248 34.98ZM189.616 36.256L190.587 36.4942L190.827 35.516L189.847 35.2831L189.616 36.256ZM187.636 40.524L186.827 39.9358L186.825 39.9392L187.636 40.524ZM178.66 43.616C176.692 43.616 174.928 43.2071 173.349 42.4046L172.443 44.1874C174.326 45.1449 176.405 45.616 178.66 45.616V43.616ZM173.356 42.4078C171.823 41.6149 170.61 40.4704 169.707 38.9557L167.989 39.9803C169.08 41.8096 170.567 43.2171 172.437 44.1842L173.356 42.4078ZM169.707 38.9557C168.82 37.4695 168.352 35.6313 168.352 33.396H166.352C166.352 35.9127 166.881 38.1225 167.989 39.9803L169.707 38.9557ZM168.352 33.396V32.78H166.352V33.396H168.352ZM168.352 32.78C168.352 30.5447 168.82 28.7065 169.707 27.2203L167.989 26.1957C166.881 28.0535 166.352 30.2633 166.352 32.78H168.352ZM169.707 27.2203C170.61 25.7056 171.823 24.5611 173.356 23.7682L172.437 21.9918C170.567 22.9589 169.08 24.3664 167.989 26.1957L169.707 27.2203ZM173.349 23.7714C174.928 22.9689 176.692 22.56 178.66 22.56V20.56C176.405 20.56 174.326 21.0311 172.443 21.9886L173.349 23.7714ZM178.66 22.56C180.627 22.56 182.259 22.9064 183.588 23.5579L184.468 21.7621C182.805 20.9469 180.858 20.56 178.66 20.56V22.56ZM183.588 23.5579C184.942 24.2215 186.011 25.1262 186.819 26.272L188.454 25.12C187.442 23.6844 186.106 22.5651 184.468 21.7621L183.588 23.5579ZM186.834 26.293C187.677 27.4255 188.233 28.7184 188.5 30.1869L190.468 29.8291C190.148 28.071 189.473 26.4892 188.438 25.099L186.834 26.293ZM189.276 29.03L183.908 30.174L184.325 32.13L189.693 30.986L189.276 29.03ZM185.107 31.0198C184.974 30.0205 184.671 29.1002 184.188 28.2721L182.46 29.2799C182.799 29.8598 183.023 30.5235 183.125 31.2842L185.107 31.0198ZM184.188 28.2721C183.679 27.399 182.952 26.7158 182.038 26.2235L181.09 27.9845C181.701 28.3136 182.148 28.745 182.46 29.2799L184.188 28.2721ZM182.053 26.2315C181.129 25.7143 180.024 25.488 178.792 25.488V27.488C179.79 27.488 180.532 27.6723 181.076 27.9765L182.053 26.2315ZM178.792 25.488C177.522 25.488 176.343 25.7737 175.275 26.3592L176.237 28.1128C176.988 27.701 177.833 27.488 178.792 27.488V25.488ZM175.286 26.3536C174.215 26.9244 173.377 27.7926 172.766 28.9131L174.522 29.8709C174.967 29.0554 175.537 28.4862 176.227 28.1184L175.286 26.3536ZM172.761 28.9228C172.166 30.0425 171.896 31.3729 171.896 32.868H173.896C173.896 31.6058 174.125 30.6188 174.527 29.8612L172.761 28.9228ZM171.896 32.868V33.308H173.896V32.868H171.896ZM171.896 33.308C171.896 34.8046 172.167 36.1437 172.755 37.286L174.533 36.37C174.124 35.5763 173.896 34.5687 173.896 33.308H171.896ZM172.773 37.3183C173.384 38.4049 174.214 39.2597 175.263 39.854L176.249 38.114C175.538 37.7109 174.96 37.1284 174.516 36.3377L172.773 37.3183ZM175.297 39.8726C176.361 40.4215 177.532 40.688 178.792 40.688V38.688C177.822 38.688 176.97 38.4851 176.215 38.0954L175.297 39.8726ZM178.792 40.688C180.624 40.688 182.182 40.2205 183.283 39.1191L181.869 37.7049C181.269 38.3048 180.304 38.688 178.792 38.688V40.688ZM183.283 39.1191C184.332 38.0708 184.971 36.7267 185.235 35.1444L183.262 34.8156C183.056 36.0493 182.581 36.9932 181.869 37.7049L183.283 39.1191ZM184.017 35.9529L189.385 37.2289L189.847 35.2831L184.479 34.0071L184.017 35.9529ZM188.645 36.0178C188.294 37.4467 187.689 38.7505 186.827 39.9358L188.445 41.1122C189.46 39.7162 190.175 38.1746 190.587 36.4942L188.645 36.0178ZM186.825 39.9392C186.019 41.0578 184.947 41.9517 183.588 42.6181L184.468 44.4139C186.101 43.6136 187.435 42.5129 188.447 41.1088L186.825 39.9392ZM183.588 42.6181C182.259 43.2696 180.627 43.616 178.66 43.616V45.616C180.858 45.616 182.805 45.2291 184.468 44.4139L183.588 42.6181ZM194.189 44H193.189V45H194.189V44ZM194.189 13.2V12.2H193.189V13.2H194.189ZM199.733 13.2H200.733V12.2H199.733V13.2ZM199.733 24.86H198.733V25.86H199.733V24.86ZM200.525 24.86V25.86H201.143L201.42 25.3072L200.525 24.86ZM201.625 23.452L202.311 24.1802L202.311 24.1802L201.625 23.452ZM203.605 22.308L203.942 23.2497L203.951 23.2465L203.96 23.243L203.605 22.308ZM211.261 23.012L210.73 23.8589L210.741 23.8661L210.753 23.8729L211.261 23.012ZM214.253 26.224L213.363 26.6788L213.367 26.6866L214.253 26.224ZM215.309 44V45H216.309V44H215.309ZM209.765 44H208.765V45H209.765V44ZM208.533 27.72L207.814 28.4141L207.82 28.4207L207.826 28.4271L208.533 27.72ZM201.141 28.204L201.906 28.8482L201.914 28.8383L201.141 28.204ZM199.733 44V45H200.733V44H199.733ZM195.189 44V13.2H193.189V44H195.189ZM194.189 14.2H199.733V12.2H194.189V14.2ZM198.733 13.2V24.86H200.733V13.2H198.733ZM199.733 25.86H200.525V23.86H199.733V25.86ZM201.42 25.3072C201.589 24.9697 201.873 24.5922 202.311 24.1802L200.94 22.7238C200.38 23.2505 199.932 23.8116 199.631 24.4128L201.42 25.3072ZM202.311 24.1802C202.686 23.8274 203.216 23.5089 203.942 23.2497L203.269 21.3663C202.352 21.6937 201.562 22.1379 200.94 22.7238L202.311 24.1802ZM203.96 23.243C204.661 22.9772 205.601 22.824 206.817 22.824V20.824C205.452 20.824 204.251 20.9934 203.251 21.373L203.96 23.243ZM206.817 22.824C208.358 22.824 209.649 23.1806 210.73 23.8589L211.793 22.1651C210.351 21.2594 208.679 20.824 206.817 20.824V22.824ZM210.753 23.8729C211.875 24.5359 212.742 25.4632 213.363 26.6788L215.144 25.7692C214.357 24.2275 213.23 23.0134 211.77 22.1511L210.753 23.8729ZM213.367 26.6866C213.983 27.8678 214.309 29.2872 214.309 30.976H216.309C216.309 29.0275 215.932 27.2789 215.14 25.7614L213.367 26.6866ZM214.309 30.976V44H216.309V30.976H214.309ZM215.309 43H209.765V45H215.309V43ZM210.765 44V31.416H208.765V44H210.765ZM210.765 31.416C210.765 29.6192 210.315 28.0879 209.24 27.0129L207.826 28.4271C208.394 28.9948 208.765 29.9275 208.765 31.416H210.765ZM209.253 27.0259C208.219 25.9535 206.781 25.488 205.101 25.488V27.488C206.414 27.488 207.264 27.8438 207.814 28.4141L209.253 27.0259ZM205.101 25.488C203.151 25.488 201.527 26.158 200.368 27.5697L201.914 28.8383C202.633 27.962 203.649 27.488 205.101 27.488V25.488ZM200.376 27.5599C199.236 28.914 198.733 30.7433 198.733 32.912H200.733C200.733 31.0327 201.169 29.7233 201.906 28.8481L200.376 27.5599ZM198.733 32.912V44H200.733V32.912H198.733ZM199.733 43H194.189V45H199.733V43ZM221.787 43.472L221.08 44.1791L221.093 44.1922L221.106 44.2048L221.787 43.472ZM221.787 37.444L222.48 38.1643L222.481 38.1638L221.787 37.444ZM227.771 37.444L227.064 38.1511L227.07 38.1578L227.077 38.1643L227.771 37.444ZM227.771 43.472L228.464 44.1923L228.471 44.1858L228.478 44.1791L227.771 43.472ZM224.779 43.616C223.845 43.616 223.094 43.3215 222.467 42.7392L221.106 44.2048C222.122 45.1479 223.366 45.616 224.779 45.616V43.616ZM222.494 42.7649C221.909 42.1801 221.599 41.4319 221.599 40.436H219.599C219.599 41.9041 220.08 43.1799 221.08 44.1791L222.494 42.7649ZM221.599 40.436C221.599 39.4398 221.909 38.7149 222.48 38.1643L221.093 36.7237C220.081 37.6984 219.599 38.9682 219.599 40.436H221.599ZM222.481 38.1638C223.11 37.5572 223.856 37.256 224.779 37.256V35.256C223.355 35.256 222.106 35.7468 221.093 36.7242L222.481 38.1638ZM224.779 37.256C225.738 37.256 226.474 37.5614 227.064 38.1511L228.478 36.7369C227.483 35.7426 226.225 35.256 224.779 35.256V37.256ZM227.077 38.1643C227.649 38.7149 227.959 39.4398 227.959 40.436H229.959C229.959 38.9682 229.477 37.6984 228.464 36.7237L227.077 38.1643ZM227.959 40.436C227.959 41.4319 227.648 42.1801 227.064 42.7649L228.478 44.1791C229.477 43.1799 229.959 41.9041 229.959 40.436H227.959ZM227.077 42.7517C226.49 43.3173 225.749 43.616 224.779 43.616V45.616C226.213 45.616 227.468 45.152 228.464 44.1923L227.077 42.7517ZM235.137 44H234.137V45H235.137V44ZM235.137 26.752H236.137V25.752H235.137V26.752ZM229.593 26.752H228.593V27.752H229.593V26.752ZM229.593 22.176V21.176H228.593V22.176H229.593ZM235.137 22.176V23.176H236.137V22.176H235.137ZM236.457 14.564L237.164 15.2711L237.164 15.2711L236.457 14.564ZM245.697 13.2H246.697V12.2H245.697V13.2ZM245.697 17.776V18.776H246.697V17.776H245.697ZM240.681 22.176H239.681V23.176H240.681V22.176ZM246.401 22.176H247.401V21.176H246.401V22.176ZM246.401 26.752V27.752H247.401V26.752H246.401ZM240.681 26.752V25.752H239.681V26.752H240.681ZM240.681 44V45H241.681V44H240.681ZM236.137 44V26.752H234.137V44H236.137ZM235.137 25.752H229.593V27.752H235.137V25.752ZM230.593 26.752V22.176H228.593V26.752H230.593ZM229.593 23.176H235.137V21.176H229.593V23.176ZM236.137 22.176V18.128H234.137V22.176H236.137ZM236.137 18.128C236.137 16.8399 236.509 15.9266 237.164 15.2711L235.75 13.8569C234.646 14.9614 234.137 16.4241 234.137 18.128H236.137ZM237.164 15.2711C237.863 14.5721 238.771 14.2 239.977 14.2V12.2C238.309 12.2 236.87 12.7372 235.75 13.8569L237.164 15.2711ZM239.977 14.2H245.697V12.2H239.977V14.2ZM244.697 13.2V17.776H246.697V13.2H244.697ZM245.697 16.776H241.913V18.776H245.697V16.776ZM241.913 16.776C241.33 16.776 240.714 16.9355 240.258 17.4237C239.815 17.8989 239.681 18.5184 239.681 19.096H241.681C241.681 18.7936 241.753 18.7531 241.72 18.7883C241.705 18.805 241.694 18.8063 241.711 18.8002C241.733 18.7922 241.794 18.776 241.913 18.776V16.776ZM239.681 19.096V22.176H241.681V19.096H239.681ZM240.681 23.176H246.401V21.176H240.681V23.176ZM245.401 22.176V26.752H247.401V22.176H245.401ZM246.401 25.752H240.681V27.752H246.401V25.752ZM239.681 26.752V44H241.681V26.752H239.681ZM240.681 43H235.137V45H240.681V43ZM253.069 52.8H252.069V53.8H253.069V52.8ZM253.069 47.96V46.96H252.069V47.96H253.069ZM266.181 41.14H267.181V40.14H266.181V41.14ZM265.389 41.14V40.14H264.755L264.484 40.7142L265.389 41.14ZM264.289 42.636L263.582 41.9289L263.582 41.9289L264.289 42.636ZM262.265 43.868L261.911 42.933L261.911 42.933L262.265 43.868ZM254.521 43.208L253.99 44.0549L254.001 44.0621L254.013 44.0689L254.521 43.208ZM251.573 39.952L250.683 40.4068L251.573 39.952ZM250.517 22.176V21.176H249.517V22.176H250.517ZM256.061 22.176H257.061V21.176H256.061V22.176ZM257.249 38.456L256.529 39.1501L256.536 39.1567L256.542 39.1631L257.249 38.456ZM264.685 38.016L265.45 38.6602L265.458 38.6503L264.685 38.016ZM266.093 22.176V21.176H265.093V22.176H266.093ZM271.637 22.176H272.637V21.176H271.637V22.176ZM270.317 51.436L269.61 50.7289L269.604 50.7347L269.599 50.7406L270.317 51.436ZM254.069 52.8V47.96H252.069V52.8H254.069ZM253.069 48.96H264.949V46.96H253.069V48.96ZM264.949 48.96C265.532 48.96 266.149 48.8005 266.604 48.3123C267.048 47.8371 267.181 47.2176 267.181 46.64H265.181C265.181 46.9424 265.109 46.9829 265.142 46.9477C265.158 46.931 265.169 46.9297 265.152 46.9358C265.129 46.9438 265.068 46.96 264.949 46.96V48.96ZM267.181 46.64V41.14H265.181V46.64H267.181ZM266.181 40.14H265.389V42.14H266.181V40.14ZM264.484 40.7142C264.311 41.0838 264.021 41.4901 263.582 41.9289L264.996 43.3431C265.555 42.7845 265.999 42.1935 266.294 41.5658L264.484 40.7142ZM263.582 41.9289C263.208 42.303 262.666 42.6465 261.911 42.933L262.62 44.803C263.566 44.4441 264.373 43.9664 264.996 43.3431L263.582 41.9289ZM261.911 42.933C261.212 43.198 260.258 43.352 259.009 43.352V45.352C260.401 45.352 261.617 45.1834 262.62 44.803L261.911 42.933ZM259.009 43.352C257.462 43.352 256.147 43.0069 255.03 42.3471L254.013 44.0689C255.477 44.9344 257.154 45.352 259.009 45.352V43.352ZM255.053 42.3611C253.951 41.6689 253.089 40.7218 252.464 39.4972L250.683 40.4068C251.465 41.9395 252.569 43.1631 253.99 44.0549L255.053 42.3611ZM252.464 39.4972C251.842 38.2798 251.517 36.8559 251.517 35.2H249.517C249.517 37.1227 249.896 38.8668 250.683 40.4068L252.464 39.4972ZM251.517 35.2V22.176H249.517V35.2H251.517ZM250.517 23.176H256.061V21.176H250.517V23.176ZM255.061 22.176V34.76H257.061V22.176H255.061ZM255.061 34.76C255.061 36.5479 255.492 38.0741 256.529 39.1501L257.969 37.7619C257.423 37.1952 257.061 36.2574 257.061 34.76H255.061ZM256.542 39.1631C257.601 40.2218 259.044 40.688 260.725 40.688V38.688C259.415 38.688 258.54 38.3329 257.956 37.7489L256.542 39.1631ZM260.725 40.688C262.667 40.688 264.289 40.0393 265.45 38.6601L263.92 37.3719C263.204 38.222 262.187 38.688 260.725 38.688V40.688ZM265.458 38.6503C266.59 37.2715 267.093 35.4347 267.093 33.264H265.093C265.093 35.1413 264.658 36.4725 263.912 37.3817L265.458 38.6503ZM267.093 33.264V22.176H265.093V33.264H267.093ZM266.093 23.176H271.637V21.176H266.093V23.176ZM270.637 22.176V47.872H272.637V22.176H270.637ZM270.637 47.872C270.637 49.1601 270.266 50.0734 269.61 50.7289L271.024 52.1431C272.129 51.0386 272.637 49.5759 272.637 47.872H270.637ZM269.599 50.7406C268.937 51.424 268.04 51.8 266.797 51.8V53.8C268.488 53.8 269.937 53.2667 271.036 52.1314L269.599 50.7406ZM266.797 51.8H253.069V53.8H266.797V51.8ZM277.807 44H276.807V45H277.807V44ZM277.807 22.176V21.176H276.807V22.176H277.807ZM283.351 22.176H284.351V21.176H283.351V22.176ZM283.351 44V45H284.351V44H283.351ZM278.027 18.656L277.335 19.3786L277.343 19.386L277.351 19.3932L278.027 18.656ZM278.027 13.552L277.351 12.8148L277.343 12.822L277.335 12.8294L278.027 13.552ZM278.807 44V22.176H276.807V44H278.807ZM277.807 23.176H283.351V21.176H277.807V23.176ZM282.351 22.176V44H284.351V22.176H282.351ZM283.351 43H277.807V45H283.351V43ZM280.579 18.624C279.819 18.624 279.213 18.3871 278.702 17.9188L277.351 19.3932C278.248 20.2156 279.343 20.624 280.579 20.624V18.624ZM278.718 17.9334C278.267 17.5022 278.015 16.9263 278.015 16.104H276.015C276.015 17.3937 276.437 18.5191 277.335 19.3786L278.718 17.9334ZM278.015 16.104C278.015 15.2817 278.267 14.7058 278.718 14.2746L277.335 12.8294C276.437 13.6889 276.015 14.8143 276.015 16.104H278.015ZM278.702 14.2892C279.213 13.8209 279.819 13.584 280.579 13.584V11.584C279.343 11.584 278.248 11.9924 277.351 12.8148L278.702 14.2892ZM280.579 13.584C281.376 13.584 281.97 13.8258 282.439 14.2746L283.822 12.8294C282.942 11.9876 281.835 11.584 280.579 11.584V13.584ZM282.439 14.2746C282.89 14.7058 283.143 15.2817 283.143 16.104H285.143C285.143 14.8143 284.72 13.6889 283.822 12.8294L282.439 14.2746ZM283.143 16.104C283.143 16.9263 282.89 17.5022 282.439 17.9334L283.822 19.3786C284.72 18.5191 285.143 17.3937 285.143 16.104H283.143ZM282.439 17.9334C281.97 18.3822 281.376 18.624 280.579 18.624V20.624C281.835 20.624 282.942 20.2204 283.822 19.3786L282.439 17.9334Z" fill="black"/>
</g>
<defs>
<clipPath id="clip0_101_66">
<rect width="300" height="64" fill="white"/>
</clipPath>
<clipPath id="clip1_101_66">
<rect width="64" height="64" fill="white"/>
</clipPath>
</defs>
</svg>
