<svg width="300" height="64" viewBox="0 0 300 64" fill="none" xmlns="http://www.w3.org/2000/svg">
<g clip-path="url(#clip0_101_59)">
<g clip-path="url(#clip1_101_59)">
<path d="M42.359 58.8119H27.4069C26.7196 58.8119 26.0927 58.4186 25.7937 57.7996C25.4947 57.1806 25.5762 56.4452 26.0034 55.9069L45.8526 30.8865C46.4672 30.1111 47.5944 29.9814 48.3695 30.5965C49.1447 31.2114 49.2746 32.3382 48.6595 33.1134L31.1149 55.2289H41.4934L59.9214 32L41.4935 8.77111H31.115L41.4757 21.8309C42.0907 22.6061 41.9609 23.733 41.1857 24.3477C40.4109 24.9627 39.2839 24.8329 38.6689 24.0577L26.0036 8.09311C25.5764 7.55474 25.495 6.81936 25.794 6.20036C26.093 5.58136 26.7199 5.18811 27.4071 5.18811H42.3592C42.906 5.18811 43.4229 5.43786 43.7627 5.86624L63.612 30.8866C64.1294 31.5387 64.1294 32.4614 63.612 33.1135L43.7625 58.1336C43.4226 58.562 42.9057 58.8119 42.359 58.8119Z" fill="#1E90FF"/>
<path d="M16.7436 6.97961L36.5931 32L16.7436 57.0204H1.7915L21.6409 32L1.7915 6.97961H16.7436Z" fill="#4FD1C5"/>
<path d="M16.7436 58.8119H1.79149C1.10412 58.8119 0.477367 58.4186 0.178367 57.7996C-0.120633 57.1806 -0.039133 56.4452 0.387992 55.9069L19.3541 32L0.387992 8.09311C-0.0392579 7.55474 -0.120633 6.81936 0.178367 6.20036C0.477367 5.58136 1.10399 5.18811 1.79149 5.18811H16.7436C17.2904 5.18811 17.8072 5.43786 18.1471 5.86624L37.9966 30.8866C38.514 31.5387 38.514 32.4614 37.9966 33.1135L18.1471 58.1336C17.8072 58.562 17.2905 58.8119 16.7436 58.8119ZM5.49962 55.2289H15.8781L34.3062 32L15.8781 8.77111H5.49962L23.0445 30.8865C23.5619 31.5386 23.5619 32.4612 23.0445 33.1134L5.49962 55.2289Z" fill="#1E90FF"/>
</g>
<path d="M84.144 44.616C81.2987 44.616 78.9667 44 77.148 42.768C75.3293 41.536 74.2293 39.776 73.848 37.488L78.952 36.168C79.1573 37.1947 79.4947 38.0013 79.964 38.588C80.4627 39.1747 81.064 39.6 81.768 39.864C82.5013 40.0987 83.2933 40.216 84.144 40.216C85.4347 40.216 86.388 39.996 87.004 39.556C87.62 39.0867 87.928 38.5147 87.928 37.84C87.928 37.1653 87.6347 36.652 87.048 36.3C86.4613 35.9187 85.5227 35.6107 84.232 35.376L83 35.156C81.4747 34.8627 80.0813 34.4667 78.82 33.968C77.5587 33.44 76.5467 32.7213 75.784 31.812C75.0213 30.9027 74.64 29.7293 74.64 28.292C74.64 26.1213 75.432 24.464 77.016 23.32C78.6 22.1467 80.6827 21.56 83.264 21.56C85.6987 21.56 87.7227 22.1027 89.336 23.188C90.9493 24.2733 92.0053 25.696 92.504 27.456L87.356 29.04C87.1213 27.9253 86.6373 27.1333 85.904 26.664C85.2 26.1947 84.32 25.96 83.264 25.96C82.208 25.96 81.4013 26.1507 80.844 26.532C80.2867 26.884 80.008 27.3827 80.008 28.028C80.008 28.732 80.3013 29.26 80.888 29.612C81.4747 29.9347 82.2667 30.184 83.264 30.36L84.496 30.58C86.1387 30.8733 87.62 31.2693 88.94 31.768C90.2893 32.2373 91.3453 32.9267 92.108 33.836C92.9 34.716 93.296 35.9187 93.296 37.444C93.296 39.732 92.46 41.5067 90.788 42.768C89.1453 44 86.9307 44.616 84.144 44.616ZM98.1542 44V22.176H103.61V25.036H104.402C104.754 24.2733 105.414 23.5547 106.382 22.88C107.35 22.176 108.817 21.824 110.782 21.824C112.484 21.824 113.965 22.22 115.226 23.012C116.517 23.7747 117.514 24.8453 118.218 26.224C118.922 27.5733 119.274 29.1573 119.274 30.976V44H113.73V31.416C113.73 29.7733 113.32 28.5413 112.498 27.72C111.706 26.8987 110.562 26.488 109.066 26.488C107.365 26.488 106.045 27.06 105.106 28.204C104.168 29.3187 103.698 30.888 103.698 32.912V44H98.1542ZM132.044 44.616C130.489 44.616 129.096 44.352 127.864 43.824C126.632 43.2667 125.649 42.4747 124.916 41.448C124.212 40.392 123.86 39.116 123.86 37.62C123.86 36.124 124.212 34.8773 124.916 33.88C125.649 32.8533 126.646 32.0907 127.908 31.592C129.198 31.064 130.665 30.8 132.308 30.8H138.292V29.568C138.292 28.5413 137.969 27.7053 137.324 27.06C136.678 26.3853 135.652 26.048 134.244 26.048C132.865 26.048 131.838 26.3707 131.164 27.016C130.489 27.632 130.049 28.4387 129.844 29.436L124.74 27.72C125.092 26.6053 125.649 25.5933 126.412 24.684C127.204 23.7453 128.245 22.9973 129.536 22.44C130.856 21.8533 132.454 21.56 134.332 21.56C137.206 21.56 139.48 22.2787 141.152 23.716C142.824 25.1533 143.66 27.236 143.66 29.964V38.104C143.66 38.984 144.07 39.424 144.892 39.424H146.652V44H142.956C141.87 44 140.976 43.736 140.272 43.208C139.568 42.68 139.216 41.976 139.216 41.096V41.052H138.38C138.262 41.404 137.998 41.8733 137.588 42.46C137.177 43.0173 136.532 43.516 135.652 43.956C134.772 44.396 133.569 44.616 132.044 44.616ZM133.012 40.128C134.566 40.128 135.828 39.7027 136.796 38.852C137.793 37.972 138.292 36.8133 138.292 35.376V34.936H132.704C131.677 34.936 130.87 35.156 130.284 35.596C129.697 36.036 129.404 36.652 129.404 37.444C129.404 38.236 129.712 38.8813 130.328 39.38C130.944 39.8787 131.838 40.128 133.012 40.128ZM157.475 44C156.038 44 154.864 43.56 153.955 42.68C153.075 41.7707 152.635 40.568 152.635 39.072V26.752H147.179V22.176H152.635V15.4H158.179V22.176H164.163V26.752H158.179V38.104C158.179 38.984 158.59 39.424 159.411 39.424H163.635V44H157.475ZM178.66 44.616C176.548 44.616 174.627 44.176 172.896 43.296C171.195 42.416 169.845 41.14 168.848 39.468C167.851 37.796 167.352 35.772 167.352 33.396V32.78C167.352 30.404 167.851 28.38 168.848 26.708C169.845 25.036 171.195 23.76 172.896 22.88C174.627 22 176.548 21.56 178.66 21.56C180.743 21.56 182.532 21.9267 184.028 22.66C185.524 23.3933 186.727 24.4053 187.636 25.696C188.575 26.9573 189.191 28.3947 189.484 30.008L184.116 31.152C183.999 30.272 183.735 29.48 183.324 28.776C182.913 28.072 182.327 27.5147 181.564 27.104C180.831 26.6933 179.907 26.488 178.792 26.488C177.677 26.488 176.665 26.7373 175.756 27.236C174.876 27.7053 174.172 28.424 173.644 29.392C173.145 30.3307 172.896 31.4893 172.896 32.868V33.308C172.896 34.6867 173.145 35.86 173.644 36.828C174.172 37.7667 174.876 38.4853 175.756 38.984C176.665 39.4533 177.677 39.688 178.792 39.688C180.464 39.688 181.725 39.2627 182.576 38.412C183.456 37.532 184.013 36.388 184.248 34.98L189.616 36.256C189.235 37.8107 188.575 39.2333 187.636 40.524C186.727 41.7853 185.524 42.7827 184.028 43.516C182.532 44.2493 180.743 44.616 178.66 44.616ZM194.189 44V13.2H199.733V24.86H200.525C200.76 24.3907 201.127 23.9213 201.625 23.452C202.124 22.9827 202.784 22.6013 203.605 22.308C204.456 21.9853 205.527 21.824 206.817 21.824C208.519 21.824 210 22.22 211.261 23.012C212.552 23.7747 213.549 24.8453 214.253 26.224C214.957 27.5733 215.309 29.1573 215.309 30.976V44H209.765V31.416C209.765 29.7733 209.355 28.5413 208.533 27.72C207.741 26.8987 206.597 26.488 205.101 26.488C203.4 26.488 202.08 27.06 201.141 28.204C200.203 29.3187 199.733 30.888 199.733 32.912V44H194.189ZM224.779 44.616C223.605 44.616 222.608 44.2347 221.787 43.472C220.995 42.68 220.599 41.668 220.599 40.436C220.599 39.204 220.995 38.2067 221.787 37.444C222.608 36.652 223.605 36.256 224.779 36.256C225.981 36.256 226.979 36.652 227.771 37.444C228.563 38.2067 228.959 39.204 228.959 40.436C228.959 41.668 228.563 42.68 227.771 43.472C226.979 44.2347 225.981 44.616 224.779 44.616ZM235.137 44V26.752H229.593V22.176H235.137V18.128C235.137 16.632 235.577 15.444 236.457 14.564C237.367 13.6547 238.54 13.2 239.977 13.2H245.697V17.776H241.913C241.092 17.776 240.681 18.216 240.681 19.096V22.176H246.401V26.752H240.681V44H235.137ZM253.069 52.8V47.96H264.949C265.771 47.96 266.181 47.52 266.181 46.64V41.14H265.389C265.155 41.6387 264.788 42.1373 264.289 42.636C263.791 43.1347 263.116 43.5453 262.265 43.868C261.415 44.1907 260.329 44.352 259.009 44.352C257.308 44.352 255.812 43.9707 254.521 43.208C253.26 42.416 252.277 41.3307 251.573 39.952C250.869 38.5733 250.517 36.9893 250.517 35.2V22.176H256.061V34.76C256.061 36.4027 256.457 37.6347 257.249 38.456C258.071 39.2773 259.229 39.688 260.725 39.688C262.427 39.688 263.747 39.1307 264.685 38.016C265.624 36.872 266.093 35.288 266.093 33.264V22.176H271.637V47.872C271.637 49.368 271.197 50.556 270.317 51.436C269.437 52.3453 268.264 52.8 266.797 52.8H253.069ZM277.807 44V22.176H283.351V44H277.807ZM280.579 19.624C279.581 19.624 278.731 19.3013 278.027 18.656C277.352 18.0107 277.015 17.16 277.015 16.104C277.015 15.048 277.352 14.1973 278.027 13.552C278.731 12.9067 279.581 12.584 280.579 12.584C281.605 12.584 282.456 12.9067 283.131 13.552C283.805 14.1973 284.143 15.048 284.143 16.104C284.143 17.16 283.805 18.0107 283.131 18.656C282.456 19.3013 281.605 19.624 280.579 19.624Z" fill="#1E90FF"/>
</g>
<defs>
<clipPath id="clip0_101_59">
<rect width="300" height="64" fill="white"/>
</clipPath>
<clipPath id="clip1_101_59">
<rect width="64" height="64" fill="white"/>
</clipPath>
</defs>
</svg>
